<?xml version="1.0" encoding="UTF-8" standalone="no"?>
<svg
   xmlns:dc="http://purl.org/dc/elements/1.1/"
   xmlns:cc="http://creativecommons.org/ns#"
   xmlns:rdf="http://www.w3.org/1999/02/22-rdf-syntax-ns#"
   xmlns:svg="http://www.w3.org/2000/svg"
   xmlns="http://www.w3.org/2000/svg"
   version="1.1"
   id="svg4389"
   viewBox="0 0 64.000004 54.020281"
   height="15.245724mm"
   width="18.062223mm">
  <defs
     id="defs4391" />
  <metadata
     id="metadata4394">
    <rdf:RDF>
      <cc:Work
         rdf:about="">
        <dc:format>image/svg+xml</dc:format>
        <dc:type
           rdf:resource="http://purl.org/dc/dcmitype/StillImage" />
        <dc:title></dc:title>
      </cc:Work>
    </rdf:RDF>
  </metadata>
  <path
     id="path4147-1"
     d="m 20.395048,4.010756e-4 0,1.4e-4 C 20.176355,0.00554108 20.075646,0.18085108 20.027567,0.59511108 c -0.0653,0.56256002 -0.293949,0.91506002 -1.235,1.90332002 -0.360647,0.37873 -0.798174,0.89724 -0.972215,1.15225 l -0.316376,0.46358 -0.01303,1.2324 -0.01283,1.23255 -0.471458,0.44705 c -0.259277,0.24593 -0.655418,0.58333 -0.880284,0.74977 -0.224886,0.16643 -0.806772,0.69017 -1.29294,1.16385 -0.486188,0.47369 -0.895977,0.86129 -0.910647,0.86129 -0.06503,0 -0.01563,-0.31251 0.113094,-0.71522 0.14484,-0.45336 0.142756,-0.50236 -0.06431,-1.5521 -0.145402,-0.73707 -0.463421,-1.76734 -0.780257,-2.5278 -0.05119,-0.12283 -0.117324,-0.33423 -0.147085,-0.46971 -0.02976,-0.13546 -0.109587,-0.26577 -0.177288,-0.28966 -0.06768,-0.0239 -0.18368,-0.0956 -0.257714,-0.15927 -0.117303,-0.10093 -0.143638,-0.10209 -0.205305,-0.008 -0.03892,0.0597 -0.05081,0.17553 -0.02642,0.25729 0.130811,0.43873 0.117283,0.93398 -0.03964,1.46049 -0.08961,0.30064 -0.206909,0.647 -0.260761,0.76966 -0.403436,0.91894 -0.672474,1.87468 -0.663254,2.35648 0.0066,0.35163 0.07305,0.55395 0.390288,1.1907089 0.210196,0.42193 0.382293,0.84401 0.382293,0.93794 0,0.0939 0.03331,0.23317 0.07405,0.30928 0.05766,0.10775 0.03295,0.18721 -0.111511,0.35891 -0.102071,0.12129 -0.185564,0.25891 -0.185564,0.30577 0,0.0469 -0.0669,0.1842 -0.148669,0.30519 -0.08177,0.12102 -0.210015,0.31197 -0.28487,0.4244 -0.07485,0.11244 -0.252584,0.37169 -0.394919,0.57612 -0.142335,0.20444 -0.281503,0.42187 -0.309401,0.4832 -0.02792,0.0613 -0.150111,0.27878 -0.271523,0.4832 -0.228053,0.38402 -1.1383397,2.20441 -1.2174237,2.43459 -0.02459,0.0716 -0.07666,0.13009 -0.115579,0.13009 -0.123997,0 -0.171355,-0.432 -0.117905,-1.07383 0.04365,-0.52394 0.02634,-0.70919 -0.109326,-1.16822 -0.205065,-0.69388 -0.323591,-0.91566 -0.701715,-1.31312 -0.429831,-0.45184 -0.881407,-0.77054 -1.609756,-1.13628 -0.345897,-0.1737 -0.762621,-0.40103 -0.92618,-0.50512 -0.676302,-0.43046 -1.062161,-0.5398 -1.222654,-0.34642 -0.113836,0.13716 -0.02024,0.31872 0.317238,0.61501 0.32367,0.28419 0.644936,0.75687 0.645678,0.94957 0,0.0825 0.04678,0.239 0.103514,0.34774 0.05674,0.10873 0.125921,0.37634 0.153619,0.59471 0.02772,0.21836 0.114818,0.58943 0.193681,0.82469 0.07886,0.23525 0.145281,0.48615 0.147666,0.55754 0.0024,0.0714 0.09438,0.31355 0.204424,0.53807 0.229676,0.46856 0.786811,0.93771 1.203795,1.01389 0.616217,0.11257 1.004722,0.43458 1.185497,0.98237 0.101811,0.30846 0.05678,0.58319 -0.227652,1.38674 -0.04343,0.12265 -0.110409,0.35682 -0.148828,0.52035 -0.03844,0.16354 -0.119127,0.42344 -0.179312,0.57758 -0.06019,0.15416 -0.109346,0.40927 -0.109346,0.56684 0,0.15758 -0.05067,0.42999 -0.112514,0.60531 -0.06187,0.17532 -0.143617,0.65618 -0.181636,1.06862 -0.09215,1.00001 -0.224285,1.98731 -0.277455,2.07333 -0.02369,0.0383 -0.186847,-0.22695 -0.362692,-0.58962 -0.175844,-0.36269 -0.42468,-0.78489 -0.552886,-0.93808 -0.373173,-0.44589 -1.415093,-1.07555 -2.341232,-1.41492 -0.163559,-0.0599 -0.482019,-0.18005 -0.707667,-0.26699 -0.225668,-0.0869 -0.456186,-0.15813 -0.512242,-0.15813 -0.05606,0 -0.240158,-0.069 -0.409008,-0.15332 -0.246611,-0.12317 -0.346919,-0.13818 -0.509916,-0.0762 -0.121673,0.0462 -0.202841,0.13311 -0.202841,0.21691 0,0.14069 0.354114,0.48654 0.633914,0.6191 0.157386,0.0746 0.605014,0.65632 0.84894,1.10331 0.206147,0.37774 0.524286,1.02536 0.524286,1.06731 0,0.13514 0.893111,1.55803 1.142528,1.82027 0.367101,0.38602 0.913153,0.64634 1.499107,0.71478 0.282907,0.0331 0.510378,0.11216 0.667744,0.23218 0.277075,0.21134 0.357401,0.51533 0.486689,1.84276 0.04431,0.45505 0.113936,0.99458 0.154761,1.19901 0.04084,0.20442 0.107382,0.57241 0.147806,0.81773 0.04042,0.24531 0.122554,0.61329 0.182519,0.81772 0.05996,0.20442 0.139328,0.52222 0.176405,0.70622 0.08524,0.42298 0.280341,1.01905 0.417425,1.27523 0.05806,0.1085 0.104417,0.2925 0.103094,0.40884 l -0.0024,0.21156 -0.238134,-0.29736 c -0.324252,-0.40499 -1.065528,-1.11424 -1.440004,-1.37773 -0.355838,-0.25036 -0.958346,-0.48376 -1.439143,-0.55754 -0.184001,-0.0282 -0.451616,-0.0998 -0.594713,-0.15913 -0.143096,-0.0593 -0.628162,-0.13736 -1.077914,-0.1735 -0.449752,-0.0361 -0.968247,-0.0995 -1.152248,-0.14083 -0.517933,-0.11632 -2.61786598,-0.10349 -2.78260698,0.017 -0.273647,0.20009 -0.01183,0.49206 0.44384,0.4951 0.08335,0 0.282746,0.0679 0.443138,0.14969 0.16039198,0.0818 0.36413498,0.14869 0.45271798,0.14869 0.08856,0 0.2026,0.0502 0.253506,0.11149 0.05088,0.0614 0.1255,0.11151 0.165803,0.11151 0.109628,0 0.934818,0.67811 1.358135,1.1161 0.742499,0.76827 2.430278,2.17765 2.713344,2.26573 0.102212,0.0318 0.251842,0.10346 0.332489,0.15927 0.110509,0.0765 0.472961,0.10149 1.470649,0.10149 1.263799,0 1.340658,0.008 1.689601,0.18527 0.433379,0.21961 0.6657807,0.49404 1.1174167,1.31965 0.47751,0.87295 0.718389,1.25535 1.22542,1.94516 0.245329,0.33373 0.533105,0.73947 0.639426,0.90162 0.10632,0.16218 0.449972,0.57445 0.763722,0.91618 0.95514,1.04034 0.938546,1.20318 -0.03834,0.3762 -1.025185,-0.86786 -1.673549,-1.24676 -2.723365,-1.59162 -0.4830817,-0.15869 -1.3671937,-0.15959 -2.2468567,-0.002 -0.347541,0.0621 -0.766609,0.11289 -0.931271,0.11295 -0.164661,6e-5 -0.365377,0.046 -0.446024,0.10209 -0.08065,0.0561 -0.263727,0.12639 -0.406823,0.15607 -0.143117,0.0297 -0.327519,0.0964 -0.40989,0.14839 -0.08237,0.052 -0.266352,0.11982 -0.408867,0.15087 -0.142496,0.031 -0.325154,0.10229 -0.405801,0.15839 -0.08065,0.0561 -0.197069,0.10207 -0.258737,0.10207 -0.122393,0 -0.807533,0.24923 -1.143109,0.41584 -0.11574,0.0575 -0.25088,0.10454 -0.300242,0.10454 -0.04938,0 -0.213583,0.0631 -0.364876,0.14025 -0.151314,0.0771 -0.396202,0.163 -0.544329,0.19077 -0.482139,0.0905 -0.786069,0.5574 -0.511219,0.78549 0.09215,0.0765 0.165302,0.0704 0.393175,-0.0324 0.229856,-0.10367 0.459131,-0.12155 1.280594,-0.10032 0.588039,0.0152 1.107976,0.0666 1.260853,0.12457 0.143117,0.0543 0.444181,0.16575 0.669047,0.2477 0.224886,0.082 0.784225,0.32886 1.242996,0.54867 0.458791,0.21984 0.876938,0.40078 0.929226,0.4022 0.05231,0.002 0.228915,0.0672 0.392454,0.1462 0.163559,0.079 0.365176,0.1448 0.448068,0.1462 0.08289,0.002 0.222461,0.0527 0.310143,0.11414 0.08766,0.0614 0.417385,0.16095 0.732639,0.22126 0.5104577,0.0977 0.6465797,0.097 1.2441387,-0.006 0.369045,-0.0637 0.740916,-0.15981 0.826453,-0.21359 0.08552,-0.0538 0.239116,-0.12243 0.341348,-0.15259 0.102211,-0.0302 0.314071,-0.15568 0.470835,-0.27906 0.639025,-0.50284 1.269271,-0.63436 1.859354,-0.3878 0.146784,0.0613 0.376721,0.11255 0.510919,0.11381 0.286474,0.003 0.639446,0.20697 1.272037,0.73585 0.726626,0.60752 1.632443,1.26899 1.737661,1.26899 0.05299,0 0.09626,0.0309 0.09626,0.0688 0,0.0379 0.175624,0.17354 0.390289,0.3014 0.214645,0.12789 0.557535,0.33702 0.761959,0.46477 0.204424,0.12774 0.973838,0.54 1.709784,0.91602 1.629838,0.83274 1.865166,0.869 1.999143,0.30854 0.0599,-0.25048 -0.136843,-0.62668 -0.361088,-0.69025 -0.140832,-0.0399 -1.885668,-0.89712 -2.333236,-1.1463 -0.176626,-0.0983 -0.992257,-0.57505 -1.335909,-0.78084 -0.4342,-0.26 -1.876088,-1.39551 -2.008884,-1.58202 -0.336657,-0.4728 -0.15933,-1.65669 0.347581,-2.32017 0.533987,-0.69893 0.698427,-1.03911 0.844731,-1.74724 0.0957,-0.46314 0.02489,-1.67719 -0.113816,-1.95124 -0.05698,-0.11254 -0.127304,-0.33838 -0.156244,-0.50192 -0.02892,-0.16356 -0.0949,-0.36428 -0.146624,-0.44605 -0.05175,-0.0818 -0.114778,-0.25422 -0.13999,-0.38315 -0.02519,-0.12895 -0.145161,-0.44673 -0.266713,-0.70623 -0.254087,-0.54244 -0.492561,-1.23377 -0.570462,-1.65416 -0.0296,-0.15976 -0.09901,-0.37719 -0.15434,-0.48321 -0.144941,-0.27779 -0.135581,-1.777 0.01243,-1.97258 0.147506,-0.19501 0.142115,-0.73942 -0.0086,-0.86448 -0.164702,-0.13668 -0.300744,-0.0307 -0.531702,0.41408 -0.27481,0.52924 -0.283187,0.54758 -0.698228,1.50899 -0.206528,0.47843 -0.473701,1.08058 -0.59355,1.33809 -0.276292,0.59363 -0.424941,0.99416 -0.54549,1.46965 -0.05253,0.20723 -0.128908,0.44139 -0.169732,0.52036 -0.04082,0.079 -0.09596,0.31086 -0.122534,0.51529 -0.02657,0.20444 -0.09646,0.5055 -0.155362,0.66904 -0.242864,0.67456 -0.03724,2.2574 0.410471,3.15939 0.191837,0.38654 1.175957,1.82468 1.321238,1.93078 0.111712,0.0816 0.320504,0.4628 0.277174,0.50613 -0.119267,0.11927 -2.325479,-2.3283 -2.833132,-3.14311 -0.07642,-0.12268 -0.243825,-0.35684 -0.372131,-0.52038 -0.128306,-0.16354 -0.484203,-0.7155 -0.790859,-1.22658 -0.454642,-0.75773 -0.566214,-1.00537 -0.604593,-1.34172 -0.03371,-0.2955 -0.01784,-0.45427 0.05606,-0.55972 0.05672,-0.081 0.142756,-0.29449 0.191216,-0.47449 0.09624,-0.35742 0.410291,-0.82064 0.556373,-0.82064 0.137105,0 1.031579,-0.84347 1.339978,-1.2636 0.148087,-0.20172 0.301104,-0.47655 0.340045,-0.61082 0.141974,-0.48938 0.275771,-2.28755 0.28008,-3.76368 l 0.0044,-1.51218 0.26513,-0.52212 c 0.145862,-0.28712 0.331607,-0.60624 0.412635,-0.70925 0.193441,-0.24591 0.188871,-0.51148 -0.01062,-0.61824 -0.142596,-0.0763 -0.220437,-0.0206 -0.801161,0.57351 -1.342121,1.37314 -2.522488,2.69927 -2.765632,3.10698 -1.0123987,1.69753 -0.984962,1.62154 -1.0169277,2.81848 -0.02385,0.89387 -0.0062,1.1003 0.1334367,1.56109 0.08852,0.29207 0.208091,0.62562 0.265851,0.74136 0.116121,0.23274 0.145361,0.90115 0.03644,0.83385 -0.03774,-0.0233 -0.09175,-0.15071 -0.12007,-0.28313 -0.02832,-0.13241 -0.07676,-0.27419 -0.107583,-0.31507 -0.03084,-0.0409 -0.09868,-0.20815 -0.150712,-0.37169 -0.05203,-0.16354 -0.1399097,-0.36336 -0.1954447,-0.444 -0.0555,-0.0807 -0.102092,-0.21447 -0.103515,-0.29736 -0.002,-0.0829 -0.06706,-0.28451 -0.146063,-0.44807 -0.079,-0.16354 -0.1448,-0.37363 -0.146203,-0.46693 -0.002,-0.0933 -0.05044,-0.28446 -0.109046,-0.42468 -0.05858,-0.14023 -0.129608,-0.41506 -0.157827,-0.61082 -0.02822,-0.19579 -0.09269,-0.45767 -0.143297,-0.58195 -0.05062,-0.12428 -0.115339,-0.45879 -0.143738,-0.74338 -0.02842,-0.28459 -0.09806,-0.68472 -0.154781,-0.88916 -0.06387,-0.2302 -0.111751,-0.8575 -0.125881,-1.64794 -0.02601,-1.45493 -0.02447,-1.45966 0.64161,-1.96661 0.302086,-0.22994 0.426063,-0.27497 0.8482187,-0.30796 0.982877,-0.0768 1.805282,-0.62153 2.254834,-1.4936 0.489494,-0.94959 0.730013,-1.45251 0.730013,-1.52698 0,-0.0964 0.507532,-1.07776 0.758492,-1.46644 0.24116,-0.37352 0.471838,-0.5609 0.996305,-0.80902 0.346779,-0.16406 0.401031,-0.21817 0.401031,-0.40131 0,-0.34499 -0.153097,-0.41257 -0.610686,-0.26962 -0.216128,0.0675 -0.481678,0.17092 -0.590203,0.22984 -0.108525,0.0589 -0.240218,0.10716 -0.292566,0.10716 -0.05233,0 -0.23114,0.061 -0.397384,0.13546 -0.28938,0.12965 -0.495687,0.20905 -1.026949,0.39522 -0.32359,0.11337 -0.884092,0.35421 -1.022158,0.43919 -0.06133,0.0378 -0.211859,0.11482 -0.334514,0.17133 -0.122674,0.0565 -0.426644,0.25367 -0.67544,0.43805 -0.248795,0.18436 -0.5237457,0.37336 -0.6109667,0.42003 -0.08724,0.0467 -0.249617,0.24315 -0.360807,0.43661 -0.111191,0.19346 -0.262765,0.43157 -0.336839,0.52907 -0.07407,0.0975 -0.135019,0.24804 -0.135761,0.33454 0,0.0865 -0.03616,0.20741 -0.07884,0.26874 -0.05768,0.0829 -0.06864,0.0352 -0.04311,-0.18585 0.07123,-0.61676 0.210156,-1.42549 0.306495,-1.78412 0.05491,-0.20444 0.121532,-0.50551 0.148087,-0.66904 0.02656,-0.16356 0.09297,-0.43118 0.147526,-0.59472 0.05455,-0.16354 0.191357,-0.59842 0.30417,-0.9664 0.313711,-1.02316 0.4987347,-1.38952 0.8601227,-1.70353 0.500177,-0.43464 0.67528,-0.48561 1.499268,-0.43646 0.621087,0.037 0.786851,0.0201 1.222514,-0.1253 0.277214,-0.0925 0.554288,-0.21 0.615615,-0.26121 0.06133,-0.0512 0.148368,-0.10582 0.193401,-0.12137 0.04503,-0.0156 0.412996,-0.41301 0.817715,-0.88321 1.469506,-1.70726 1.923006,-2.08177 2.649752,-2.18775 0.425121,-0.062 0.555351,-0.23062 0.375919,-0.48683 -0.118044,-0.16853 -0.129027,-0.16949 -1.241693,-0.11833 -0.6174,0.0284 -1.333664,0.0998 -1.591739,0.15855 -0.258075,0.0588 -0.592609,0.10827 -0.743401,0.11005 -0.150773,0.002 -0.407926,0.0545 -0.571465,0.11716 -0.163539,0.0627 -0.43915,0.14378 -0.612269,0.1802 -0.173159,0.0364 -0.397784,0.12063 -0.499315,0.18714 -0.294069,0.19268 -0.348722,0.0948 -0.13069,-0.23404 0.582246,-0.87802 0.794085,-1.15373 1.256644,-1.63545 0.451356,-0.47006 0.551804,-0.53743 0.931711,-0.62476 0.372192,-0.0856 0.498574,-0.0816 1.00356,0.0316 0.317759,0.0712 0.703939,0.17675 0.858079,0.23449 0.363173,0.13602 0.808616,0.13333 1.14369,-0.007 0.146785,-0.0613 0.321246,-0.11165 0.387804,-0.11181 0.06656,0 0.371991,-0.12806 0.678627,-0.28413 0.306655,-0.15606 0.841885,-0.42576 1.189425,-0.59964 0.34752,-0.1738989 0.698768,-0.3552389 0.780558,-0.4026389 0.08177,-0.0474 0.525749,-0.10533 0.986725,-0.12892 0.661451,-0.0338 0.865173,-0.0704 0.966403,-0.17336 0.121592,-0.12362 0.119147,-0.13775 -0.0472,-0.27413 -0.09652,-0.0791 -0.223142,-0.14402 -0.281383,-0.14402 -0.05824,0 -0.18338,-0.0508 -0.278036,-0.11281 -0.109066,-0.0715 -0.441676,-0.12881 -0.908042,-0.15667 -0.404759,-0.0242 -0.919827,-0.0986 -1.144693,-0.16538 -0.307497,-0.0912 -0.722157,-0.12129 -1.672607,-0.12181 -1.083546,0 -1.299253,0.0184 -1.512334,0.13474 -0.232703,0.12696 -0.420392,0.1192 -0.266853,-0.011 0.791981,-0.67185 1.07142,-0.89287 1.564302,-1.2369 0.866556,-0.60489 1.290615,-0.7833 1.86224,-0.7833 0.41999,0 0.571604,0.0453 1.273178,0.37996 0.698107,0.33301 0.869763,0.38458 1.391084,0.41729 0.48244,0.0302 0.678406,0.007 1.038131,-0.11993 0.243906,-0.0864 0.528255,-0.15717 0.63189,-0.15739 0.103635,0 0.281283,-0.0488 0.394758,-0.10802 0.113496,-0.0592 0.389628,-0.14141 0.613592,-0.1828 0.223964,-0.0414 0.475967,-0.11233 0.560161,-0.15738 0.09466,-0.0507 0.527333,-0.0753 1.133509,-0.0643 l 0.980332,0.0176 0.02251,-0.18903 c 0.02764,-0.23086 -0.156805,-0.4308 -0.397524,-0.4308 -0.0982,0 -0.321707,-0.0641 -0.496569,-0.14243 -0.50669,-0.22701 -1.110201,-0.45228 -1.211772,-0.45228 -0.05141,0 -0.239336,-0.0662 -0.417585,-0.14708 -0.17823,-0.0809 -0.409629,-0.14777 -0.514266,-0.14867 -0.104617,0 -0.249497,-0.045 -0.322028,-0.098 -0.118686,-0.0868 -0.08852,-0.1177 0.301706,-0.30853 0.238474,-0.11663 0.581485,-0.3247 0.762119,-0.46244 0.355597,-0.27115 1.035226,-1.01912 1.305847,-1.43712 0.09267,-0.1431 0.314812,-0.4518 0.493663,-0.68616 0.855092,-1.12059002 0.896158,-1.19512002 0.80102,-1.45107002 -0.09532,-0.25641 -0.295953,-0.20172 -0.71927,0.19572 -0.212561,0.19958 -0.462259,0.38105002 -0.55479,0.40350002 -0.09253,0.0224 -0.335396,0.095 -0.539819,0.16115 -0.760436,0.24607 -1.048313,0.32572 -1.338094,0.37053 -0.283307,0.0438 -0.42013,0.0946 -1.059175,0.39304 -0.333311,0.15566 -0.794928,0.61303 -1.161106,1.15036 -0.38083,0.55882 -0.411253,0.5901 -0.864773,0.88365 -0.517292,0.33484 -1.855165,0.98625 -1.91088,0.93053 -0.02311,-0.0231 -0.0054,-0.13498 0.03936,-0.24871 0.04471,-0.11376 0.104617,-0.34071 0.133136,-0.50425 0.02852,-0.16356 0.09279,-0.39772 0.142716,-0.52038 0.05079,-0.1247 0.111872,-0.78013 0.138667,-1.48676 0.02637,-0.69508 0.0683,-1.47105002 0.09321,-1.72445002 0.04401,-0.44737 0.03986,-0.46218 -0.143457,-0.50818 -0.06383,-0.016 -0.12057,-0.0238 -0.171034,-0.0226000044 z m 22.435281,0.1244100044 0,1.6e-4 c -0.129027,-0.016 -0.206107,0.26153 -0.228393,0.83223 -0.01764,0.44951002 0.01122,0.79060002 0.08886,1.05571002 0.06315,0.2154 0.129488,0.74532 0.147365,1.17764 0.02163,0.52316 0.07275,0.86371 0.152737,1.01839 0.0661,0.12782 0.120089,0.31627 0.120089,0.41859 0,0.10231 0.03886,0.2713 0.08638,0.37562 0.04754,0.10429 0.06962,0.2065 0.04906,0.22707 -0.02056,0.0206 -0.301945,-0.0965 -0.625336,-0.26018 -0.32339,-0.16366 -0.616517,-0.29778 -0.65147,-0.29794 -0.03495,0 -0.21232,-0.10065 -0.394057,-0.2233 -0.181736,-0.12266 -0.359665,-0.22303 -0.395359,-0.22303 -0.141554,0 -0.519717,-0.39417 -0.85896,-0.89525 -0.196468,-0.29016 -0.493824,-0.6375 -0.66077,-0.77184 -0.346739,-0.27904 -1.098577,-0.6374 -1.337212,-0.6374 -0.08848,0 -0.351308,-0.0669 -0.58397,-0.14867 -0.232662,-0.0818 -0.49232,-0.14867 -0.577136,-0.14867 -0.08484,0 -0.244587,-0.0454 -0.354996,-0.10091 -0.110409,-0.0555 -0.308519,-0.12133 -0.440232,-0.14636 -0.31848,-0.0605 -0.793385,-0.36688 -0.998189,-0.64394002 -0.201438,-0.27244 -0.409148,-0.28755 -0.522844,-0.038 -0.112032,0.2459 -0.04089,0.39303002 0.58381,1.20684002 1.604405,2.09003 2.213207,2.67053 3.021763,2.88177 0.156505,0.0409 0.27511,0.1078 0.263667,0.14869 -0.02515,0.0897 -0.428148,0.24643 -0.874212,0.3399 -0.179633,0.0376 -0.364917,0.10021 -0.411774,0.13909 -0.04684,0.0389 -0.217731,0.10396 -0.379667,0.1446 -0.372091,0.0934 -1.124571,0.35498 -1.244299,0.43254 -0.05,0.0324 -0.221499,0.0924 -0.38113,0.13327 -0.377041,0.0966 -0.511359,0.29852 -0.304471,0.45765 0.119067,0.0916 0.278838,0.1056 0.801762,0.0706 0.688547,-0.0461 1.487443,0.0364 2.054759,0.21228 0.575413,0.17835 1.353345,0.3877 1.960664,0.52777 0.558758,0.12887 0.599302,0.12867 1.115091,-0.002 0.29439,-0.074 0.798415,-0.26387 1.120001,-0.42208 0.550401,-0.27078 0.624615,-0.28763 1.26376,-0.28661 0.454281,0 0.740434,0.0367 0.864772,0.10846 0.102212,0.059 0.259839,0.14078 0.350206,0.18178 0.09035,0.041 0.224164,0.12973 0.297356,0.19733 0.07317,0.0676 0.351408,0.2612 0.618362,0.43033 0.701814,0.44466 1.674951,1.23676 1.519449,1.23676 -0.03317,0 -0.123235,-0.0568 -0.200215,-0.12646 -0.123416,-0.11169 -0.330625,-0.12588 -1.752773,-0.1189 -1.32192,0.006 -1.75129,0.0361 -2.380273,0.1639 -0.422095,0.0858 -0.927322,0.1558 -1.122647,0.1558 -0.497772,0 -0.814548,0.125 -0.869262,0.34295 -0.07732,0.30808 0.06389,0.37776 0.845893,0.41712 0.564731,0.0284 0.830181,0.0811 1.207142,0.23972 0.527694,0.2221189 2.05973,0.9479489 2.415988,1.1445489 0.330786,0.18252 2.056382,0.17741 2.393781,-0.007 0.369326,-0.20196 1.387677,-0.17873 1.732591,0.0395 0.436946,0.27645 1.639118,1.69678 1.986658,2.34717 0.08349,0.15626 0.07964,0.16923 -0.03614,0.12036 -0.07137,-0.0301 -0.430873,-0.15377 -0.798856,-0.2747 -0.367982,-0.12094 -0.769394,-0.25481 -0.892068,-0.2975 -0.30876,-0.10744 -1.201431,-0.19491 -2.053737,-0.20124 -0.456887,-0.003 -0.812304,-0.0455 -0.982657,-0.11674 -0.505107,-0.21104 -1.163732,-0.11085 -1.163732,0.17701 0,0.25645 0.357922,0.44542 1.071521,0.56581 0.297777,0.0502 0.503504,0.24072 2.598366,2.40757 0.894153,0.92488 1.089999,1.00408 2.443304,0.98731 0.990653,-0.0122 1.262837,0.0788 1.779748,0.59573 0.282265,0.28227 0.730334,1.1299 0.730334,1.3815 0,0.0753 0.03317,0.1701 0.07375,0.21068 0.08351,0.0835 0.345276,0.99442 0.446606,1.55428 0.03702,0.20443 0.117543,0.50549 0.179031,0.66905 0.06149,0.16354 0.113355,0.4157 0.115138,0.56044 0.002,0.14472 0.05337,0.4558 0.114698,0.69125 0.124198,0.47685 0.145402,0.82237 0.04676,0.7614 -0.03561,-0.022 -0.08385,-0.13596 -0.107302,-0.25322 -0.100208,-0.50104 -0.938405,-1.49033 -1.478785,-1.74534 -0.151595,-0.0715 -0.29435,-0.16027 -0.317238,-0.19733 -0.03724,-0.0603 -0.643694,-0.37349 -0.93113,-0.48088 -0.06133,-0.0229 -0.161675,-0.071 -0.223002,-0.10686 -0.254588,-0.14885 -0.830582,-0.38181 -0.949708,-0.38418 -0.07045,-0.002 -0.262023,-0.0672 -0.425562,-0.14622 -0.163539,-0.079 -0.330145,-0.14478 -0.370248,-0.1462 -0.09576,-0.003 -0.839239,-0.28988 -1.090821,-0.42047 -0.377863,-0.19613 -0.806251,-0.11183 -0.806251,0.15855 0,0.1168 0.06449,0.19636 0.204424,0.2522 0.384076,0.15326 0.971994,0.64069 1.236603,1.02534 0.145381,0.21134 0.420852,0.71264 0.612129,1.11407 0.754083,1.58256 0.713859,1.5056 1.116534,2.1423 0.27531,0.43529 0.476968,0.63211 0.872889,0.85185 0.408126,0.22651 0.834971,0.36071 1.402567,0.44109 0.76236,0.10797 1.32691,0.57976 1.431006,1.19596 0.06498,0.38456 -0.09774,2.61733 -0.228373,3.13442 -0.05832,0.23078 -0.106,0.50114 -0.106,0.6008 0,0.0997 -0.06253,0.39586 -0.138948,0.65831 -0.0764,0.26242 -0.17869,0.62762 -0.227371,0.8116 -0.26517,1.00206 -0.384317,1.36864 -0.748892,2.3045 -0.08762,0.22488 -0.194684,0.50921 -0.237974,0.63189 -0.04329,0.12265 -0.124518,0.27204 -0.180474,0.3319 -0.08716,0.0933 -0.101771,0.061 -0.101771,-0.22504 0,-0.18366 0.04744,-0.40163 0.105399,-0.48437 0.05794,-0.0827 0.130049,-0.28254 0.160292,-0.444 0.03024,-0.16145 0.1062,-0.41067 0.16871,-0.55376 0.085,-0.19457 0.111791,-0.51325 0.10628,-1.26376 -0.0068,-0.92745 -0.02237,-1.03459 -0.205586,-1.41243 -0.54537,-1.12469 -1.121024,-1.90619 -2.373459,-3.22226 -1.199226,-1.26013 -2.003794,-1.98143 -2.210121,-1.98143 -0.237713,0 -0.243004,0.2892 -0.01082,0.58281 0.673697,0.85167 0.822224,1.58905 0.86359,4.28637 l 0.02964,1.93278 0.222721,0.4832 c 0.259658,0.56339 0.81517,1.17207 1.497364,1.64082 0.259979,0.17865 0.502481,0.39272 0.538817,0.47565 0.03634,0.083 0.09546,0.20104 0.131392,0.26236 0.13017,0.22224 0.340466,1.001 0.340466,1.26072 0,0.17666 -0.08049,0.3853 -0.239858,0.62142 -0.131933,0.19553 -0.239997,0.3837 -0.239997,0.41815 0,0.12073 -1.108237,1.70866 -1.801113,2.58065 -0.705282,0.8876 -2.484289,2.75251 -2.556679,2.68011 -0.06744,-0.0674 0.16907,-0.44478 0.568999,-0.90774 0.445564,-0.51579 1.261294,-1.73591 1.261294,-1.88693 4e-5,-0.0565 0.06283,-0.20703 0.13953,-0.33451 0.137885,-0.22922 0.253204,-0.91945 0.250018,-1.49548 -0.0028,-0.50669 -0.154801,-1.54639 -0.271663,-1.85847 -0.06123,-0.16354 -0.112774,-0.38949 -0.114558,-0.50208 -0.002,-0.11258 -0.07024,-0.32945 -0.152015,-0.48202 -0.08177,-0.15258 -0.148668,-0.31706 -0.148668,-0.36546 0,-0.0484 -0.04856,-0.18262 -0.107884,-0.29838 -0.05932,-0.11574 -0.171615,-0.36107 -0.249577,-0.54505 -0.475505,-1.1219 -0.734602,-1.70299 -1.242856,-2.7877 -0.0958,-0.20442 -0.272364,-0.48805 -0.392453,-0.63026 -0.183741,-0.21761 -0.23637,-0.24363 -0.332049,-0.16422 -0.198972,0.16512 -0.221519,0.44909 -0.05678,0.71566 0.131833,0.2133 0.151414,0.36895 0.151434,1.20261 2e-5,0.78525 -0.02898,1.04469 -0.161455,1.44089 -0.18821,0.56309 -0.616979,1.68457 -0.81555,2.13318 -0.0759,0.17152 -0.138066,0.37313 -0.138066,0.44807 0,0.0749 -0.04582,0.20218 -0.101932,0.28283 -0.0561,0.0806 -0.1258,0.26372 -0.154781,0.40682 -0.02896,0.1431 -0.121151,0.46895 -0.205004,0.72408 -0.127605,0.38823 -0.146344,0.58822 -0.114558,1.22658 0.04465,0.89682 0.210897,1.33796 0.756588,2.00786 0.527574,0.64765 0.633874,0.93975 0.635818,1.74682 0.002,0.68122 0,0.68995 -0.256712,0.97336 -0.257734,0.28529 -1.097475,0.90384 -1.227023,0.90384 -0.03758,0 -0.09508,0.0441 -0.127765,0.098 -0.03269,0.0539 -0.243505,0.20556 -0.468391,0.337 -0.517773,0.3026 -0.654997,0.3864 -0.918924,0.56116 -0.333973,0.22116 -2.372618,1.23398 -2.483809,1.23398 -0.128025,0 -0.780337,0.36215 -0.851985,0.47304 -0.01543,0.0239 -0.02704,0.0558 -0.03601,0.0922 -2.453185,0.90289 -5.057062,1.37443 -7.695771,1.38004 -1.117376,-0.006 -2.232667,-0.0961 -3.336655,-0.26874 0.05088,0.18737 0.100408,0.36542 0.152596,0.56014 l 1.329676,4.96283 7.929816,-2.1249 7.929815,-2.12475 -0.203982,-0.40289 c -0.188311,-0.37237 -0.789457,-1.73843 -1.489387,-3.35772 0.819859,-0.51575 2.047844,-1.38139 2.425146,-1.71197 0.770778,-0.6753 0.955861,-0.74406 2.064359,-0.76633 l 0.946361,-0.019 0.63187,0.37648 c 1.511493,0.90067 2.701379,0.98224 4.211449,0.28864 0.128827,-0.0592 0.290983,-0.10758 0.360367,-0.10758 0.0694,0 0.403897,-0.13382 0.74338,-0.29736 0.339484,-0.16354 0.649907,-0.29736 0.68981,-0.29736 0.0399,0 0.114197,-0.0502 0.165082,-0.11151 0.05091,-0.0613 0.147586,-0.11149 0.214745,-0.11149 0.06714,0 0.246852,-0.0669 0.399428,-0.14869 0.152557,-0.0818 0.340125,-0.14866 0.416844,-0.14866 0.07672,0 0.302668,-0.0751 0.502081,-0.16697 0.329062,-0.15159 0.472399,-0.16683 1.551957,-0.16408 0.771559,0.002 1.245541,0.0341 1.348976,0.0912 0.127484,0.0704 0.177026,0.0668 0.247272,-0.0178 0.252523,-0.30429 -0.170934,-0.68522 -1.001536,-0.90121 -0.204444,-0.0532 -0.605855,-0.1846 -0.892069,-0.29198 -0.286193,-0.1074 -0.6274,-0.22743 -0.758191,-0.26671 -0.130811,-0.0393 -0.331527,-0.12033 -0.446045,-0.18006 -0.114497,-0.0597 -0.263085,-0.10902 -0.330164,-0.10902 -0.06708,0 -0.267795,-0.0667 -0.446024,-0.14753 -0.17823,-0.0809 -0.400511,-0.14779 -0.493944,-0.14867 -0.09343,0 -0.243966,-0.0486 -0.334514,-0.106 -0.09057,-0.0574 -0.345355,-0.1282 -0.566253,-0.15724 -0.220898,-0.029 -0.512462,-0.0992 -0.648003,-0.15579 -0.348623,-0.14566 -2.512287,-0.14403 -2.792328,0.002 -0.109687,0.0572 -0.310403,0.12806 -0.446044,0.15752 -0.331207,0.0719 -1.32667,0.61312 -1.634288,0.88843 -0.254086,0.22743 -0.745585,0.62894 -1.310496,1.07052 -0.495106,0.387 -0.461817,0.21081 0.06548,-0.34644 0.620145,-0.65538 1.541876,-1.73628 1.777745,-2.08468 0.102211,-0.151 0.282545,-0.40071 0.40073,-0.55491 0.118185,-0.15422 0.268717,-0.37833 0.334513,-0.49802 0.0658,-0.1197 0.30363,-0.52124 0.528516,-0.89221 0.224866,-0.37098 0.454923,-0.76546 0.511219,-0.87667 0.133096,-0.26299 0.458611,-0.61111 0.571465,-0.61111 0.04868,0 0.13017,-0.0502 0.181055,-0.11151 0.05091,-0.0613 0.165724,-0.11151 0.255109,-0.11151 0.08939,0 0.227431,-0.0492 0.306796,-0.10919 0.169551,-0.12824 0.752059,-0.14758 1.048573,-0.0349 0.504867,0.19196 1.4954,0.0479 2.215793,-0.32231 0.285471,-0.14672 1.551856,-1.11343 1.866568,-1.42493 0.732378,-0.72492 1.519931,-1.44838 1.703852,-1.56517 0.767992,-0.48767 1.233356,-0.68997 1.703671,-0.74033 0.504666,-0.054 0.712316,-0.1731 0.712316,-0.40843 0,-0.19931 -0.18849,-0.32006 -0.424379,-0.27194 -0.114117,0.0233 -1.038773,0.0606 -2.054919,0.083 -1.305286,0.0288 -1.918356,0.0704 -2.08875,0.14156 -0.132634,0.0554 -0.421994,0.12522 -0.642892,0.15506 -0.220898,0.0298 -0.466226,0.0884 -0.54521,0.12995 -0.07898,0.0416 -0.316857,0.11586 -0.528636,0.16508 -0.831804,0.19336 -2.054378,1.12507 -2.604177,1.98463 -0.09588,0.14989 -0.205506,0.29181 -0.243625,0.31536 -0.08624,0.0533 0.04116,-0.54584 0.141854,-0.66715 0.03888,-0.0469 0.10143,-0.23228 0.139088,-0.41191 0.03768,-0.17963 0.119648,-0.47709 0.182077,-0.66107 0.2605,-0.76785 0.538537,-1.92152 0.680791,-2.82486 0.05475,-0.34754 0.134219,-0.78242 0.176707,-0.9664 0.04249,-0.18398 0.07816,-0.59259 0.07912,-0.90804 0.002,-0.5393 0.01603,-0.58982 0.242182,-0.84734 0.288417,-0.32846 0.562185,-0.45223 1.201189,-0.54272 0.697586,-0.0988 1.081101,-0.35247 1.510571,-0.99935 0.498393,-0.7507 0.532103,-0.80525 0.628683,-1.01419 0.23134,-0.50035 0.46318,-0.95746 0.622009,-1.22658 0.09652,-0.16354 0.20733,-0.36425 0.246251,-0.44602 0.199714,-0.41963 0.539558,-0.7597 1.002698,-1.00358 0.522363,-0.27507 0.620286,-0.44823 0.338722,-0.59892 -0.257574,-0.13785 -1.106052,0.0289 -1.701927,0.33439 -0.102232,0.0524 -0.302928,0.11676 -0.446045,0.14302 -0.266352,0.0489 -0.402795,0.10403 -1.115071,0.45081 -0.746347,0.36335 -1.297589,0.75533 -1.583322,1.12583 -0.293769,0.38089 -0.721174,1.20929 -0.721174,1.39776 0,0.0597 -0.02135,0.1642 -0.04748,0.2323 -0.08975,0.23391 -0.173359,-0.0525 -0.173359,-0.59485 0,-0.57595 -0.249076,-2.31578 -0.415682,-2.90572 -0.05874,-0.20803 -0.106861,-0.4422 -0.106861,-0.52038 2e-5,-0.17989 -0.349084,-1.40353 -0.489154,-1.71444 -0.05804,-0.12882 -0.105559,-0.3029 -0.105559,-0.38678 0,-0.0839 -0.03812,-0.23645 -0.0848,-0.33888 -0.166725,-0.36592 0.202761,-1.12661 0.668185,-1.37569 0.08265,-0.0442 0.237252,-0.0804 0.343512,-0.0804 0.544188,0 1.450908,-0.78182 1.593643,-1.3741 0.03956,-0.16419 0.12023,-0.44906 0.179172,-0.63304 0.143577,-0.44819 0.279479,-0.99971 0.354254,-1.43754 0.09321,-0.54569 0.334233,-0.97195 0.779977,-1.37934 0.2219,-0.2028 0.403356,-0.41469 0.403356,-0.47085 0,-0.13883 -0.151915,-0.28052 -0.300704,-0.28052 -0.06724,0 -0.722698,0.30048 -1.456559,0.66774 -1.131344,0.56619 -1.419281,0.74623 -1.893324,1.18303 -0.848458,0.7818 -1.041098,1.28058 -1.086171,2.81398 -0.02894,0.98418 -0.09299,1.1787 -0.256993,0.78055 -0.452457,-1.09849 -1.380421,-2.72264 -2.247137,-3.93269 -0.545691,-0.76182 -0.652853,-1.04803 -0.615195,-1.6437 0.02459,-0.38847 0.08269,-0.58728 0.259457,-0.88656 0.12534,-0.21214 0.28425,-0.6103289 0.353112,-0.8849389 0.105579,-0.42093 0.111431,-0.56469 0.03688,-0.91529 -0.120751,-0.56798 -0.187268,-0.79377 -0.373995,-1.27074 -0.495728,-1.26612 -0.55473,-1.5052 -0.557115,-2.2589 -0.002,-0.61734 -0.02313,-0.74805 -0.132415,-0.81727 -0.183801,-0.11646 -0.368543,0.0184 -0.448649,0.32754 -0.03561,0.13742 -0.112353,0.31777 -0.170454,0.40075 -0.05812,0.0829 -0.106761,0.20194 -0.108164,0.26438 -0.002,0.0625 -0.06722,0.24734 -0.146203,0.4109 -0.079,0.16354 -0.14466,0.36515 -0.146083,0.44806 -0.002,0.0829 -0.04964,0.21786 -0.107142,0.29997 -0.0575,0.0821 -0.128687,0.31535 -0.158268,0.51833 -0.02956,0.20298 -0.09714,0.45462 -0.150111,0.55914 -0.223423,0.44079 -0.2122,1.74698 0.02018,2.35256 0.07269,0.1894089 -0.113455,0.048 -0.91646,-0.69635 -0.404258,-0.37469 -1.019453,-0.90569 -1.366993,-1.17998 -1.412407,-1.11475 -1.438642,-1.16065 -1.444815,-2.52476 -0.0046,-1.01634 -0.01002,-1.04983 -0.227792,-1.42984 -0.122654,-0.21402 -0.493723,-0.66564 -0.824549,-1.00358 -0.995944,-1.01735 -1.366151,-1.50799 -1.634427,-2.16525002 -0.192559,-0.47172 -0.346859,-0.71452 -0.460695,-0.72873 z M 33.372206,9.7507911 c -0.381631,0.003 -0.773143,0.0222 -1.170827,0.0595 L 31.568327,10.01241 c -0.808015,0.25807 -2.748116,1.92262 -3.318659,2.84722 l -0.683857,0.85257 0.754865,0.66353 c 2.539503,2.50034 3.530196,3.39961 3.660005,3.36077 0.08522,-0.0255 1.212914,-1.07295 2.269063,-1.97099 1.056129,-0.89804 1.950643,-1.68553 1.98768,-1.75017 4.416835,-2.36812 1.637995,-4.2974589 -2.865218,-4.2645689 z m 6.267811,3.4638489 c -0.124559,0 -0.244788,0.0291 -0.354996,0.0905 -0.354916,-0.0275 -5.865437,3.06253 -7.312917,5.52704 -0.778674,0.34896 -3.043068,2.15689 -2.418754,3.04978 2.216494,3.16995 3.315713,1.74714 6.148905,-0.68228 0.924717,-0.79294 1.805081,0.98891 2.635382,2.15277 0.582287,0.62413 -0.508434,1.32015 -0.52603,1.34623 -0.01764,0.0261 -0.375699,0.45937 -0.906439,0.82034 -5.448553,3.70546 -3.572023,7.32849 -3.564047,12.63971 l 0.0024,1.46209 -0.392153,-0.76342 C 30.383706,35.20682 30.40946,37.37387 26.303009,36.40815 l -3.29515,-1.97504 -3.29513,-1.97521 0.494365,1.59508 0.494685,1.59523 c 5.085801,3.68039 6.554044,5.83804 8.000663,10.57931 1.311378,0.26352 2.645643,0.39676 3.983216,0.39752 3.960348,-0.004 7.832935,-1.1668 11.139748,-3.34609 -1.010334,-2.37376 -1.917674,-4.55013 -1.909577,-4.62729 0.01062,-0.10306 -1.118298,-3.43374 0.364876,-7.51777 1.720927,-8.85132 9.160506,-6.60006 -2.259042,-17.8228 -0.128186,-0.0632 -0.257033,-0.0954 -0.381571,-0.0964 z m -13.175629,0.78635 c -0.01343,-0.002 -0.02481,-0.002 -0.03399,0.002 -0.783023,0.20979 -3.503261,3.12938 -3.824648,4.10489 -0.15458,0.46925 0.189253,0.48925 1.986959,2.02774 3.444058,2.94749 5.416186,4.57081 5.21575,4.29334 -0.110769,-0.15332 1.867872,1.78143 1.648216,1.13281 2.192445,-2.07446 2.302934,-2.03554 1.580416,-1.66275 -0.763422,0.3939 -2.473386,1.11026 -4.27009,-1.83204 -1.177842,-0.86046 1.879195,-3.49105 2.411057,-3.94197 0.10127,-0.0859 -1.371583,-1.20572 -2.574556,-2.38087 -1.248167,-1.21931 -1.936935,-1.71722 -2.139114,-1.74231 z m -4.310334,5.6914 c -0.788394,0.0579 -3.244184,4.0454 -2.924181,4.82097 0.133778,0.32425 8.664559,6.00258 8.914958,5.93402 0.05812,-0.016 0.280922,-0.21336 0.495106,-0.43863 0.516932,-0.54372 1.689462,-2.3919 1.93469,-3.04948 l 0.195445,-0.524 -4.048411,-3.24824 c -2.226675,-1.78654 -4.406312,-3.46055 -4.4966,-3.48767 -0.02182,-0.007 -0.04557,-0.009 -0.07101,-0.007 z m -2.625802,6.44175 c -0.388265,-0.0403 -1.816084,2.9688 -1.849033,3.89682 -0.01042,0.29796 0.294731,0.51913 1.781373,1.29091 3.795827,1.97049 6.386837,3.23577 6.541358,3.19439 0.08852,-0.0237 0.505327,-0.65474 0.926179,-1.40243 0.420873,-0.74767 0.728911,-1.48536 0.684579,-1.63936 -0.07029,-0.24433 -7.728979,-5.30337 -8.084456,-5.34033 z M 8.8583563,34.05221 c 0.01383,0.002 0.04744,0.0268 0.09235,0.069 0.07183,0.0675 0.113776,0.16788 0.09335,0.22302 -0.02617,0.0706 -0.05399,0.0563 -0.09438,-0.0485 -0.03151,-0.0818 -0.07361,-0.18214 -0.09351,-0.22302 -0.0074,-0.0154 -0.0062,-0.0219 0.0022,-0.0205 z"
     style="fill:#000000" />
</svg>
